<svg width="24" height="24" viewBox="0 0 24 24" fill="none" xmlns="http://www.w3.org/2000/svg">
<g id="shopping-cart">
<path id="Vector" d="M9.99992 19.1666C10.3681 19.1666 10.6666 18.8681 10.6666 18.4999C10.6666 18.1317 10.3681 17.8333 9.99992 17.8333C9.63173 17.8333 9.33325 18.1317 9.33325 18.4999C9.33325 18.8681 9.63173 19.1666 9.99992 19.1666Z" stroke="#26877F" stroke-linecap="round" stroke-linejoin="round"/>
<path id="Vector_2" d="M17.3334 19.1666C17.7016 19.1666 18.0001 18.8681 18.0001 18.4999C18.0001 18.1317 17.7016 17.8333 17.3334 17.8333C16.9652 17.8333 16.6667 18.1317 16.6667 18.4999C16.6667 18.8681 16.9652 19.1666 17.3334 19.1666Z" stroke="#26877F" stroke-linecap="round" stroke-linejoin="round"/>
<path id="Vector_3" d="M4.66675 5.16675H7.33341L9.12008 14.0934C9.18104 14.4003 9.34802 14.6761 9.59178 14.8723C9.83554 15.0685 10.1405 15.1727 10.4534 15.1667H16.9334C17.2463 15.1727 17.5513 15.0685 17.7951 14.8723C18.0388 14.6761 18.2058 14.4003 18.2667 14.0934L19.3334 8.50008H8.00008" stroke="#26877F" stroke-linecap="round" stroke-linejoin="round"/>
</g>
</svg>
