<svg width="25" height="24" viewBox="0 0 25 24" fill="none" xmlns="http://www.w3.org/2000/svg">
<g id="shopping-cart">
<path id="Vector" d="M10.4999 19.1666C10.8681 19.1666 11.1666 18.8681 11.1666 18.4999C11.1666 18.1317 10.8681 17.8333 10.4999 17.8333C10.1317 17.8333 9.83325 18.1317 9.83325 18.4999C9.83325 18.8681 10.1317 19.1666 10.4999 19.1666Z" stroke="#E9F3F2" stroke-width="2" stroke-linecap="round" stroke-linejoin="round"/>
<path id="Vector_2" d="M17.8334 19.1666C18.2016 19.1666 18.5001 18.8681 18.5001 18.4999C18.5001 18.1317 18.2016 17.8333 17.8334 17.8333C17.4652 17.8333 17.1667 18.1317 17.1667 18.4999C17.1667 18.8681 17.4652 19.1666 17.8334 19.1666Z" stroke="#E9F3F2" stroke-width="2" stroke-linecap="round" stroke-linejoin="round"/>
<path id="Vector_3" d="M5.16675 5.16675H7.83341L9.62008 14.0934C9.68104 14.4003 9.84802 14.6761 10.0918 14.8723C10.3355 15.0685 10.6405 15.1727 10.9534 15.1667H17.4334C17.7463 15.1727 18.0513 15.0685 18.2951 14.8723C18.5388 14.6761 18.7058 14.4003 18.7667 14.0934L19.8334 8.50008H8.50008" stroke="#E9F3F2" stroke-width="2" stroke-linecap="round" stroke-linejoin="round"/>
</g>
</svg>
